<svg xmlns="http://www.w3.org/2000/svg" viewBox="0 0 24 24" fill="none" stroke-width="1.5" stroke-linecap="round" stroke-linejoin="round">
  <path d="M3 18v-6a9 9 0 0 1 18 0v6" stroke="url(#gradient)" />
  <path d="M21 19a2 2 0 0 1-2 2h-1a2 2 0 0 1-2-2v-3a2 2 0 0 1 2-2h3z" stroke="url(#gradient)" />
  <path d="M3 19a2 2 0 0 0 2 2h1a2 2 0 0 0 2-2v-3a2 2 0 0 0-2-2H3z" stroke="url(#gradient)" />
  <circle cx="12" cy="12" r="1" stroke="url(#gradient)" />
  <circle cx="12" cy="12" r="3" stroke="url(#gradient)" stroke-dasharray="1 2" />
  <circle cx="12" cy="12" r="5" stroke="url(#gradient)" stroke-dasharray="1 2" />
  <circle cx="12" cy="12" r="7" stroke="url(#gradient)" stroke-dasharray="1 2" />
  
  <defs>
    <linearGradient id="gradient" x1="0%" y1="0%" x2="100%" y2="100%">
      <stop offset="0%" stop-color="#00FFFF" />
      <stop offset="100%" stop-color="#9D00FF" />
    </linearGradient>
  </defs>
</svg> 