<svg xmlns="http://www.w3.org/2000/svg" viewBox="0 0 24 24" fill="none" stroke="#9D00FF" stroke-width="1.5" stroke-linecap="round" stroke-linejoin="round">
  <path d="M15 6.5c0 1.5-1.5 3-3 3s-3-1.5-3-3 1.5-3 3-3 3 1.5 3 3z" />
  <path d="M19.5 15c0 1.5-1.5 3-3 3s-3-1.5-3-3 1.5-3 3-3 3 1.5 3 3z" />
  <path d="M10.5 15c0 1.5-1.5 3-3 3s-3-1.5-3-3 1.5-3 3-3 3 1.5 3 3z" />
  <path d="M12 12v-3" stroke-dasharray="1 2" />
  <path d="M16.5 13.5l-1.5-1.5" stroke-dasharray="1 2" />
  <path d="M7.5 13.5l1.5-1.5" stroke-dasharray="1 2" />
  <path d="M12 21v-3.5" stroke-dasharray="1 2" />
  <path d="M3 3l18 18" />
  <path d="M12 12m-9 0a9 9 0 1 0 18 0a9 9 0 1 0 -18 0" stroke-dasharray="1 2" />
  <path d="M14.5 17.5l4 4" />
  <path d="M9.5 17.5l-4 4" />
</svg> 