<svg xmlns="http://www.w3.org/2000/svg" viewBox="0 0 24 24" fill="none" stroke="#FF00E6" stroke-width="1.5" stroke-linecap="round" stroke-linejoin="round">
  <path d="M9 12l2 2l4-4" />
  <path d="M5 7c0-1.1.9-2 2-2h10a2 2 0 0 1 2 2v10a2 2 0 0 1-2 2H7a2 2 0 0 1-2-2V7Z" />
  <path d="M22 4c0-.5523-.4477-1-1-1H3c-.55228 0-1 .4477-1 1v16c0 .5523.44772 1 1 1h18c.5523 0 1-.4477 1-1V4Z" />
  <path d="M8 2v2" />
  <path d="M16 2v2" />
  <filter id="glow">
    <feGaussianBlur stdDeviation="2.5" result="coloredBlur" />
    <feMerge>
      <feMergeNode in="coloredBlur" />
      <feMergeNode in="SourceGraphic" />
    </feMerge>
  </filter>
  <style>
    path {
      filter: url(#glow);
    }
  </style>
</svg> 